# xmcd
#
# Track frame offsets:
# 150
# 24660
# 48445
# 66984
# 91514
# 115715
# 145804
# 166022
# 182681
# 202652
# 217374
#
# Disc length: 3124 seconds
#
# Revision: 5
# Processed by: cddbd v1.4PL0 Copyright (c) Steve Scherf et al.
# Submitted via: Axialis_AX_CDPlayer 2.6
#
DISCID=910c320b
DTITLE=Danger Danger - The Return Of The Great Gildersleeves
DYEAR=2000
DGENRE=Hard Rock
TTITLE0=Grind
TTITLE1=When She's Good She's Good
TTITLE2=Six Million Dollar Man
TTITLE3=She's Gone
TTITLE4=Dead Drunk and Wasted
TTITLE5=Dead Dog
TTITLE6=I Do
TTITLE7=My Secret
TTITLE8=Cherry Cherry
TTITLE9=Get In The Ring
TTITLE10=Walk It Like Ya Talk It
EXTD=
EXTT0=
EXTT1=
EXTT2=
EXTT3=
EXTT4=
EXTT5=
EXTT6=
EXTT7=
EXTT8=
EXTT9=
EXTT10=
PLAYORDER=
